<?xml version="1.0" encoding="UTF-8"?>
<svg width="752pt" height="752pt" version="1.1" viewBox="0 0 752 752" xmlns="http://www.w3.org/2000/svg">
 <g>
  <path d="m494.4 494.4v26.488c0 7.168 5.9102 12.977 13.203 12.977h52.52c7.293 0 13.207-5.8086 13.207-12.977v-135.55c0-9.5938-2.3164-18.805-6.5078-26.984l-11.957-15.973 29.875-16.102c6.7305-3.6289 10.105-15.363 7.3672-25.617l-3.0664-11.473c-1.9141-7.1758-6.4102-11.852-11.395-11.852h-62.266l-11.668-32.918c-5.582-15.754-20.484-26.281-37.195-26.281h-41.184c-5.4492 0-9.8672 4.418-9.8672 9.8672 0 5.4492 4.418 9.8672 9.8672 9.8672h41.184c8.3555 0 15.805 5.2617 18.598 13.141l11.664 32.914c2.793 7.8789 10.242 13.141 18.602 13.141h55.344l2.3203 8.6875c0.36328 1.3633 0.37109 3.0273 0.0625 4.3789l-27.605 14.875c-11.824 6.3711-13.961 22.441-4.2188 31.684 7.8242 7.4258 12.312 17.75 12.312 28.645v128.79h-39.465v-19.73c0-10.898-8.8359-19.734-19.73-19.734h-69.066c-5.4492 0-9.8672 4.418-9.8672 9.8672s4.418 9.8672 9.8672 9.8672zm-236.79 0v26.488c0 7.168-5.9102 12.977-13.203 12.977h-52.52c-7.293 0-13.207-5.8086-13.207-12.977v-135.55c0-9.5938 2.3164-18.805 6.5078-26.984l11.957-15.973-29.879-16.102c-6.7305-3.6289-10.102-15.363-7.3633-25.617l3.0625-11.473c1.918-7.1758 6.4141-11.852 11.398-11.852h62.266l11.668-32.918c5.582-15.754 20.484-26.281 37.195-26.281h41.184c5.4453 0 9.8633 4.418 9.8633 9.8672 0 5.4492-4.418 9.8672-9.8633 9.8672h-41.184c-8.3555 0-15.805 5.2617-18.598 13.141l-11.668 32.914c-2.7891 7.8789-10.242 13.141-18.598 13.141h-55.344l-2.3203 8.6875c-0.36328 1.3633-0.375 3.0273-0.0625 4.3789l27.602 14.875c11.824 6.3711 13.965 22.441 4.2188 31.684-7.8242 7.4258-12.309 17.75-12.309 28.645v128.79h39.465v-19.73c0-10.898 8.832-19.734 19.73-19.734h69.066c5.4453 0 9.8633 4.418 9.8633 9.8672s-4.418 9.8672-9.8633 9.8672z"/>
  <path d="m284.92 401.05c5.4375 0.67188 9.957 4.8555 9.957 10.312v7.9531c0 1.5508-1.2891 2.7891-2.8438 2.7305l-42.785-1.5938c-6.25-0.23438-11.375-5.5352-11.375-11.785v-8.8047c0-2.3398 1.9336-4.3828 4.2617-4.0977zm182.16 0 42.781-5.2852c2.332-0.28516 4.2656 1.7578 4.2656 4.0977v8.8047c0 6.25-5.125 11.551-11.375 11.785l-42.785 1.5938c-1.5547 0.058593-2.8438-1.1797-2.8438-2.7305v-7.9531c0-5.457 4.5156-9.6406 9.957-10.312z" fill-rule="evenodd"/>
  <path d="m376 178.68c5.4492 0 9.8672 5.4492 9.8672 9.8672v355.19c0 5.4492-4.418 9.8672-9.8672 9.8672s-9.8672-5.4492-9.8672-9.8672v-355.19c0-5.4492 4.418-9.8672 9.8672-9.8672z" fill-rule="evenodd"/>
 </g>
</svg>
