<svg xmlns="http://www.w3.org/2000/svg" xmlns:xlink="http://www.w3.org/1999/xlink" version="1.1" id="Capa_1" x="0px" y="0px" viewBox="0 0 70 70" style="enable-background:new 0 0 374.104 374.104;" xml:space="preserve" width="70" height="70"><path d="M58.078 21.496h2.785c2.605 0 4.725 -2.12 4.725 -4.725V4.725C65.587 2.12 63.468 0 60.862 0h-2.785c-2.605 0 -4.726 2.12 -4.726 4.725v4.339h-11.76c-0.752 -2.939 -3.42 -5.117 -6.59 -5.117c-3.17 0 -5.839 2.18 -6.591 5.117H16.649V4.725C16.649 2.12 14.529 0 11.924 0H9.138C6.532 0 4.413 2.12 4.413 4.725v12.044c0 2.605 2.12 4.725 4.726 4.725h2.785c2.605 0 4.725 -2.12 4.725 -4.725V12.432h11.761c0.613 2.4 2.506 4.292 4.907 4.906v31.436c-2.166 0.71 -3.734 2.75 -3.734 5.149v3.646h-12.933v-4.339c0 -2.605 -2.12 -4.725 -4.725 -4.725H9.138c-2.607 0 -4.726 2.12 -4.726 4.725v12.044c0 2.605 2.12 4.725 4.726 4.725h2.785c2.605 0 4.725 -2.12 4.725 -4.725v-4.339h12.933v3.646c0 2.988 2.43 5.418 5.418 5.418c2.988 0 5.418 -2.43 5.418 -5.418v-3.646h12.933v4.339c0 2.605 2.12 4.725 4.726 4.725h2.785c2.605 0 4.725 -2.12 4.725 -4.725v-12.044c0 -2.605 -2.12 -4.725 -4.725 -4.725h-2.785c-2.605 0 -4.726 2.12 -4.726 4.725v4.339h-12.933v-3.646c0 -2.4 -1.568 -4.438 -3.734 -5.149V17.338c2.4 -0.613 4.292 -2.506 4.906 -4.906h11.76v4.339C53.351 19.375 55.471 21.496 58.078 21.496zM13.28 16.769c0 0.749 -0.609 1.358 -1.357 1.358H9.138c-0.749 0 -1.358 -0.609 -1.358 -1.358V4.725c0 -0.749 0.609 -1.358 1.358 -1.358h2.785c0.749 0 1.357 0.609 1.357 1.358V16.769zM13.28 65.275c0 0.749 -0.609 1.358 -1.357 1.358H9.138c-0.749 0 -1.358 -0.609 -1.358 -1.358v-12.044c0 -0.749 0.609 -1.358 1.358 -1.358h2.785c0.749 0 1.357 0.609 1.357 1.358V65.275zM56.72 53.231c0 -0.749 0.609 -1.358 1.358 -1.358h2.785c0.749 0 1.358 0.609 1.358 1.358v12.044c0 0.749 -0.609 1.358 -1.358 1.358h-2.785c-0.749 0 -1.358 -0.609 -1.358 -1.358V53.231zM37.05 64.582c0 1.13 -0.92 2.05 -2.05 2.05h0c-1.13 0 -2.05 -0.92 -2.05 -2.05v-10.66c0 -1.13 0.92 -2.05 2.051 -2.05c1.13 0 2.05 0.92 2.05 2.05V64.582zM35.12 14.175c-0.039 -0.003 -0.078 -0.006 -0.119 -0.006s-0.08 0.003 -0.119 0.006c-1.838 -0.063 -3.315 -1.575 -3.315 -3.427c0 -1.893 1.54 -3.434 3.434 -3.434c1.893 0 3.433 1.54 3.433 3.434C38.434 12.6 36.957 14.112 35.12 14.175zM56.72 4.725c0 -0.749 0.609 -1.358 1.358 -1.358h2.785c0.749 0 1.358 0.609 1.358 1.358v12.044c0 0.749 -0.609 1.358 -1.358 1.358h-2.785c-0.749 0 -1.358 -0.609 -1.358 -1.358V4.725z"/><g/><g/><g/><g/><g/><g/><g/><g/><g/><g/><g/><g/><g/><g/><g/></svg>