<svg xmlns="http://www.w3.org/2000/svg" xmlns:xlink="http://www.w3.org/1999/xlink" width="1200" height="600" viewBox="0 0 1464 732"><title>Flag of Belarus</title><path fill="#C8313E" width="1098" height="549" d="M0 0H1464V732H0V0z"/><path y="366" fill="#4AA657" width="1098" height="183" d="M0 487.993H1464V732H0V487.993z"/><path fill="#FFF" width="122" height="549" d="M0 0H162.651V732H0V0z"/><g id="h"><g id="q" fill="#C8313E" fill-rule="evenodd" transform="scale(5.304347826,9)"><path d="M5.331 0h4.007v1.333h1.333v1.333h1.333v1.333h1.333v1.333h1.333v1.333h-1.333v1.333h-1.333v1.333h-1.333v1.333h-1.333v1.333h-1.333v1.333h-1.333v-1.333h-1.333v-1.333h-1.333v-1.333h-1.333v-1.333h-1.333v-1.333h-1.333v-1.333h1.333v-1.333h1.333v-1.333h1.333v-1.333h1.333zM6.669 2.674h1.333v1.333h1.333v1.333h1.333v1.333h-1.333v1.333h-1.333v1.333h-1.333v-1.333h-1.333v-1.333h-1.333v-1.333h1.333v-1.333h1.333zM6.669 5.331h1.333v1.333h-1.333zM0 1.333h1.333v1.333h-1.333zM0 9.326h1.333v1.333h-1.333zM14.674 0h0.793v2.674h-0.793zM14.674 9.326h0.793v2.674h-0.793zM2.674 12h1.333v1.333h1.333v1.333h1.333v1.333h-1.333v1.333h-1.333v1.333h-1.333v-1.333h-1.333v-1.333h-1.333v-1.333h1.333v-1.333h1.333zM2.674 14.674h1.333v1.333h-1.333zM10.667 12h1.333v1.333h1.333v1.333h1.333v1.333h-1.333v1.333h-1.333v1.333h-1.333v-1.333h-1.333v-1.333h-1.333v-1.333h1.333v-1.333h1.333zM10.667 14.674h1.333v1.333h-1.333zM0 19.993h1.333v1.333h-1.333zM14.674 18.669h0.793v2.674h-0.793z"/><path d="M0 24h1.333v-1.333h1.333v-1.333h1.333v-1.333h1.333v-1.333h1.333v-1.333h1.333v1.333h1.333v1.333h1.333v1.333h1.333v1.333h1.333v1.333h1.333v1.333h0.793v5.331h-0.793v1.333h-1.333v1.333h-1.333v1.333h-1.333v1.333h-1.333v1.333h-1.333v3.467h-2.674v-0.793h-1.333v-1.333h-1.333v-1.333h-1.333v-1.333h-1.333v-4.007h1.333v1.333h1.333v1.333h1.333v1.333h1.333v-1.333h1.333v-1.333h1.333v-1.333h1.333v-1.333h1.333v-1.333h1.333v-1.333h-1.333v-1.333h-1.333v-1.333h-4.007v1.333h2.674v1.333h-1.333v1.333h-1.333v1.333h-1.333v-1.333h-1.333v-1.333h-1.333v-1.333h-1.333zM0 29.331h1.333v1.333h-1.333zM14.674 33.326h0.793v1.333h-0.793zM12 36h1.333v1.333h1.333v1.333h0.793v2.126h-0.793v-0.793h-1.333v-1.333h-1.333zM9.326 40.007h1.333v0.793h-1.333z"/></g><use xlink:href="#q" transform="translate(122,0) scale(-1,1)"/></g><use xlink:href="#h" transform="translate(0,549) scale(1,-1)"/></svg>