<?xml version="1.0" standalone="no"?>
<!DOCTYPE svg PUBLIC "-//W3C//DTD SVG 20010904//EN"
 "http://www.w3.org/TR/2001/REC-SVG-20010904/DTD/svg10.dtd">
<svg version="1.0" xmlns="http://www.w3.org/2000/svg"
 width="366.000000pt" height="268.000000pt" viewBox="0 0 366.000000 268.000000"
 preserveAspectRatio="xMidYMid meet">

<g transform="translate(0.000000,268.000000) scale(0.100000,-0.100000)"
fill="#000000" stroke="none">
<path d="M1276 2524 c-241 -50 -530 -166 -706 -282 -224 -149 -378 -334 -453
-547 -52 -146 -57 -392 -11 -545 62 -209 234 -422 463 -575 253 -168 659 -303
928 -308 89 -2 105 1 129 19 81 60 52 89 -186 180 -339 129 -583 302 -669 473
-37 72 -50 155 -31 190 16 31 79 57 191 78 85 16 169 18 889 18 596 0 821 -3
898 -13 192 -25 252 -56 252 -130 0 -129 -104 -277 -283 -400 -110 -76 -227
-135 -407 -207 -249 -99 -280 -123 -227 -173 56 -52 209 -50 445 8 494 121
874 377 1037 700 127 250 122 576 -12 820 -99 181 -300 368 -523 489 -179 96
-454 188 -652 217 -223 33 -367 -7 -296 -83 29 -31 62 -48 213 -108 137 -54
322 -146 416 -206 94 -61 209 -182 248 -260 43 -88 51 -164 22 -201 -28 -35
-114 -62 -252 -80 -145 -18 -1558 -18 -1704 0 -134 17 -209 39 -241 71 -24 24
-26 31 -21 84 13 149 146 305 375 440 98 58 191 101 377 173 170 66 215 105
168 146 -50 44 -199 49 -377 12z m224 -43 c0 -5 -84 -36 -187 -70 -212 -69
-428 -170 -533 -250 -155 -117 -322 -324 -375 -466 -33 -87 -32 -116 5 -159
55 -62 83 -68 400 -78 397 -13 2241 -4 2345 11 96 15 134 34 158 84 16 32 17
44 8 89 -35 162 -232 413 -430 547 -104 71 -293 156 -493 222 -175 58 -219 79
-167 79 45 0 272 -51 375 -85 133 -43 338 -143 459 -223 116 -77 271 -224 330
-312 92 -138 165 -345 165 -464 -1 -64 -12 -47 -34 52 -25 111 -71 227 -123
311 -49 78 -109 151 -124 151 -5 0 18 -51 51 -113 80 -152 102 -236 103 -397
1 -154 -10 -204 -78 -345 -157 -323 -458 -537 -958 -681 -75 -21 -137 -34
-162 -32 l-40 3 60 18 c558 166 882 392 1038 725 23 50 31 80 31 128 1 73 -17
100 -96 140 l-47 24 -1328 0 -1328 0 -50 -28 c-87 -48 -110 -106 -81 -203 44
-144 168 -313 320 -435 161 -130 331 -215 631 -315 157 -52 183 -73 61 -49
-109 21 -358 109 -481 169 -269 132 -457 307 -566 526 -70 141 -93 240 -87
374 7 140 30 222 100 360 32 63 58 120 58 125 0 19 -62 -49 -109 -120 -60 -90
-105 -197 -132 -316 -33 -146 -50 -142 -29 7 29 199 133 390 301 549 212 202
565 376 881 435 117 22 158 25 158 12z m-524 -942 c116 -7 475 -9 1014 -6 876
5 919 7 1024 51 53 22 80 20 113 -8 l28 -24 -28 -11 c-62 -24 -319 -33 -1112
-38 -571 -4 -908 -2 -1080 6 -247 12 -370 27 -370 46 0 5 15 19 32 31 l33 22
83 -29 c72 -25 109 -30 263 -40z"/>
</g>
</svg>
