<?xml version="1.0" standalone="no"?>
<!DOCTYPE svg PUBLIC "-//W3C//DTD SVG 20010904//EN"
 "http://www.w3.org/TR/2001/REC-SVG-20010904/DTD/svg10.dtd">
<svg version="1.0" xmlns="http://www.w3.org/2000/svg"
 width="330.000000pt" height="341.000000pt" viewBox="0 0 330.000000 341.000000"
 preserveAspectRatio="xMidYMid meet">

<g transform="translate(0.000000,341.000000) scale(0.100000,-0.100000)"
fill="#000000" stroke="none">
<path d="M1222 2538 c-173 -21 -423 -101 -589 -188 -138 -72 -228 -136 -324
-230 -187 -184 -261 -354 -261 -600 0 -142 24 -245 87 -369 146 -290 533 -536
995 -631 222 -46 382 -18 340 59 -14 27 -44 42 -187 95 -325 119 -532 264
-612 428 -17 35 -34 84 -37 110 -6 41 -3 49 19 72 63 63 194 76 817 83 832 9
1127 -16 1171 -98 31 -58 -31 -201 -129 -299 -116 -116 -277 -209 -515 -296
-143 -53 -173 -68 -187 -95 -42 -77 118 -105 340 -59 379 78 724 265 903 490
197 247 237 586 102 865 -138 282 -477 516 -910 625 -215 55 -381 59 -428 11
-43 -43 2 -81 164 -137 123 -42 298 -126 389 -185 36 -24 99 -77 140 -118 83
-84 127 -161 137 -241 5 -43 3 -51 -21 -73 -32 -30 -111 -53 -241 -69 -140
-18 -1350 -18 -1490 0 -130 16 -209 39 -241 69 -24 22 -26 30 -21 73 10 82 53
157 142 245 119 120 294 219 526 300 57 20 117 45 135 56 69 42 49 91 -45 109
-60 11 -66 11 -169 -2z m113 -57 c-6 -5 -65 -26 -132 -46 -395 -116 -648 -285
-795 -531 -118 -195 -111 -282 24 -322 46 -14 186 -17 1128 -20 1282 -4 1338
-1 1387 74 27 42 20 94 -26 191 -140 291 -406 485 -835 608 -191 55 -175 74
29 35 372 -72 751 -295 915 -539 84 -126 140 -288 140 -405 -1 -70 -14 -59
-24 20 -15 118 -93 292 -172 382 -55 63 -76 68 -39 10 113 -183 155 -368 121
-539 -77 -379 -421 -668 -958 -805 -137 -34 -184 -28 -63 9 309 94 501 190
667 334 127 109 232 266 259 387 10 48 10 58 -7 92 -23 45 -68 71 -150 84 -83
14 -2239 13 -2324 -1 -165 -26 -197 -116 -106 -298 136 -269 419 -459 896
-603 111 -33 47 -36 -79 -4 -508 131 -832 385 -943 736 -19 62 -23 95 -22 195
1 142 26 231 99 359 25 44 45 83 45 88 0 17 -16 7 -46 -30 -85 -102 -152 -242
-175 -362 -20 -110 -27 -123 -28 -50 -2 183 112 410 283 567 128 117 349 245
540 312 145 51 421 102 391 72z m-727 -801 c96 -43 134 -45 1037 -45 912 0
946 2 1040 47 43 21 46 21 80 5 40 -19 46 -42 13 -50 -107 -27 -291 -32 -1133
-32 -842 0 -1026 5 -1132 32 -31 7 -29 29 5 47 35 19 39 19 90 -4z"/>
</g>
</svg>
