<svg xmlns="http://www.w3.org/2000/svg" version="1.0" width="30.000000pt" height="30.000000pt" viewBox="0 0 512.000000 512.000000" preserveAspectRatio="xMidYMid meet">

<g transform="translate(0.000000,512.000000) scale(0.100000,-0.100000)" fill="#000000" stroke="none">
<path d="M2463 4726 c-94 -30 -166 -98 -216 -205 -28 -59 -32 -76 -32 -156 0 -77 4 -98 27 -148 34 -73 112 -151 208 -208 l75 -44 316 -3 317 -3 -15 78 c-35 187 -121 392 -216 518 -60 79 -151 146 -229 170 -62 18 -177 19 -235 1z m212 -180 c63 -30 102 -70 163 -173 44 -73 108 -240 127 -332 l7 -33 -33 7 c-70 15 -207 57 -279 86 -241 97 -326 221 -250 369 48 94 160 126 265 76z"/>
<path d="M3650 4719 c-129 -51 -215 -141 -303 -316 -60 -119 -107 -263 -131 -405 l-7 -38 307 0 306 0 71 37 c87 46 184 134 220 202 96 175 19 413 -164 507 -46 24 -69 28 -149 31 -79 3 -105 -1 -150 -18z m247 -181 c63 -41 95 -134 79 -224 -17 -90 -194 -200 -434 -269 -68 -19 -128 -35 -133 -35 -15 0 -10 35 17 122 71 226 163 371 267 419 60 28 151 22 204 -13z"/>
<path d="M1822 3874 c-22 -15 -22 -18 -22 -260 0 -150 4 -253 10 -265 11 -19 36 -19 1368 -19 1043 0 1361 3 1370 12 9 9 12 83 12 270 0 244 -1 258 -19 268 -13 7 -455 10 -1358 10 -1195 0 -1341 -2 -1361 -16z"/>
<path d="M2052 3238 c-9 -9 -12 -75 -12 -234 l0 -221 93 -17 c188 -35 411 -126 672 -276 102 -59 132 -71 200 -83 l80 -13 3 405 c1 223 0 416 -3 429 l-5 22 -508 0 c-382 0 -511 -3 -520 -12z"/>
<path d="M3287 3243 c-4 -3 -7 -199 -7 -434 l0 -427 23 -6 c12 -3 35 -6 50 -6 42 0 361 -66 437 -89 57 -18 92 -21 285 -21 121 0 226 4 233 8 10 7 12 112 10 493 l-3 484 -511 3 c-281 1 -514 -1 -517 -5z"/>
<path d="M333 2759 c-17 -19 -29 -60 -52 -184 -33 -180 -75 -502 -91 -705 -27 -347 -38 -827 -20 -874 14 -37 55 -44 300 -51 202 -7 216 -6 231 11 14 16 17 59 22 279 7 333 38 659 112 1202 19 138 35 259 35 267 0 9 -8 24 -19 35 -15 15 -41 19 -162 25 -79 3 -187 9 -239 12 -91 6 -96 5 -117 -17z"/>
<path d="M1600 2643 c-231 -35 -566 -142 -583 -185 -2 -7 -26 -280 -53 -606 -48 -589 -48 -592 -29 -611 14 -14 54 -26 140 -40 107 -19 132 -27 245 -84 69 -35 292 -158 495 -274 452 -257 639 -358 770 -414 91 -40 109 -44 197 -47 120 -5 275 17 732 103 188 35 378 68 422 74 168 21 210 47 684 427 148 118 264 238 292 300 26 60 28 137 4 182 -17 32 -17 33 8 62 53 63 42 143 -28 208 -135 124 -357 60 -591 -171 -176 -174 -296 -222 -657 -263 -192 -21 -386 -15 -503 15 -44 12 -160 60 -257 106 -97 47 -186 85 -197 85 -21 0 -280 76 -289 85 -3 3 48 5 114 5 65 0 162 7 214 15 168 26 255 20 621 -40 184 -31 362 -62 397 -70 121 -28 176 -15 248 59 55 56 87 126 105 224 20 105 -24 216 -107 270 -138 92 -460 174 -794 202 -182 15 -303 36 -353 61 -23 12 -100 55 -171 97 -225 130 -386 194 -575 226 -118 20 -369 20 -501 -1z"/>
</g>
</svg>